<svg width="22" height="22" viewBox="0 0 22 22" fill="none" xmlns="http://www.w3.org/2000/svg">
<g clip-path="url(#clip0_356_20013)">
<path d="M4.02145 7.59468C3.76295 7.90268 3.35114 8.14674 2.94001 8.11099C2.8857 7.69574 3.09057 7.25093 3.32707 6.97524C3.58489 6.66105 4.03589 6.43555 4.40164 6.41699C4.44495 6.8508 4.27582 7.27705 4.02214 7.59468H4.02145ZM4.39751 8.1928C3.80007 8.15637 3.2872 8.53587 3.00395 8.53587C2.71451 8.53587 2.2807 8.21068 1.80839 8.22168C1.19582 8.22924 0.623136 8.57918 0.311698 9.14224C-0.336614 10.2622 0.143261 11.9204 0.766136 12.8334C1.0707 13.2844 1.43507 13.7787 1.91564 13.765C2.37007 13.7464 2.55295 13.4646 3.10089 13.4646C3.6557 13.4646 3.81314 13.765 4.29714 13.754C4.7942 13.7464 5.10907 13.303 5.41364 12.852C5.76082 12.3398 5.90382 11.8379 5.91139 11.8132C5.90382 11.8022 4.9482 11.4337 4.94132 10.3234C4.93376 9.3918 5.69276 8.94837 5.72507 8.92293C5.29882 8.27874 4.62576 8.21068 4.39682 8.19349L4.39751 8.1928ZM7.84601 6.93193V13.7072H8.88757V11.3911H10.3279C11.6417 11.3911 12.5657 10.4781 12.5657 9.16012C12.5657 7.83943 11.6603 6.93262 10.3636 6.93262L7.84601 6.93193ZM8.88757 7.82018H10.0873C10.9893 7.82018 11.5056 8.30693 11.5056 9.16287C11.5056 10.0188 10.9893 10.5097 10.0804 10.5097H8.88757V7.82018ZM14.4625 13.7574C15.1177 13.7574 15.7227 13.4247 15.9991 12.8939H16.0211V13.7072H16.9836V10.3337C16.9836 9.36018 16.2108 8.72699 15.018 8.72699C13.9153 8.72699 13.0985 9.36774 13.0703 10.245H14.0046C14.0837 9.82631 14.4632 9.55406 14.9898 9.55406C15.6271 9.55406 15.9819 9.85449 15.9819 10.4066V10.7785L14.6859 10.8576C13.4753 10.9325 12.8235 11.4302 12.8235 12.3006C12.8235 13.1779 13.4973 13.7581 14.4632 13.7581L14.4625 13.7574ZM14.7458 12.9551C14.1903 12.9551 13.8362 12.6863 13.8362 12.2752C13.8362 11.8489 14.1765 11.598 14.8241 11.5581L15.9812 11.4866V11.8696C15.9812 12.5041 15.4477 12.9551 14.7416 12.9551H14.7458ZM18.2692 15.5511C19.2819 15.5511 19.759 15.1572 20.1743 13.9719L22.0003 8.79437H20.9443L19.7198 12.7936H19.6978L18.4734 8.79437H17.3851L19.1471 13.7251L19.0536 14.0256C18.8921 14.5309 18.6349 14.7268 18.1764 14.7268C18.0939 14.7268 17.9364 14.7165 17.8718 14.7096V15.5229C17.9323 15.5401 18.1908 15.5477 18.2658 15.5477L18.2692 15.5511Z" fill="#BCBCBC"/>
</g>
<defs>
<clipPath id="clip0_356_20013">
<rect width="22" height="22" fill="white"/>
</clipPath>
</defs>
</svg>
