<svg width="19" height="21" viewBox="0 0 19 21" fill="none" xmlns="http://www.w3.org/2000/svg">
<path fill-rule="evenodd" clip-rule="evenodd" d="M5.23213 2.56867C6.41901 1.43235 7.93279 0.804773 9.5 0.799316C12.6944 0.799316 15.3461 3.43621 15.6346 6.83648C17.5251 7.13313 19 8.89062 19 11.0476C19 13.4155 17.2211 15.3022 15.0658 15.3022H11.875C11.7175 15.3022 11.5665 15.2328 11.4552 15.1091C11.3438 14.9855 11.2812 14.8178 11.2812 14.643C11.2812 14.4682 11.3438 14.3005 11.4552 14.1769C11.5665 14.0532 11.7175 13.9838 11.875 13.9838H15.067C16.6001 13.9838 17.8125 12.6495 17.8125 11.0476C17.8125 9.44437 16.6012 8.1101 15.0658 8.1101H14.4721V7.45088C14.4733 4.52393 12.2645 2.11776 9.5 2.11776C8.21735 2.12345 6.97875 2.6378 6.00756 3.56805C5.10862 4.42768 4.63837 5.46398 4.63837 6.27746V6.86812L4.10994 6.93273C2.451 7.13445 1.1875 8.64671 1.1875 10.4477C1.1875 12.3819 2.64812 13.9838 4.48994 13.9838H7.125C7.28247 13.9838 7.4335 14.0532 7.54484 14.1769C7.65619 14.3005 7.71875 14.4682 7.71875 14.643C7.71875 14.8178 7.65619 14.9855 7.54484 15.1091C7.4335 15.2328 7.28247 15.3022 7.125 15.3022H4.48994C2.02825 15.3022 0 13.1479 0 10.4477C0 8.12329 1.50337 6.19835 3.49362 5.71053C3.66344 4.57271 4.3225 3.43885 5.23213 2.56867Z" fill="#ADFE37"/>
<path fill-rule="evenodd" clip-rule="evenodd" d="M9.0794 6.26545C9.13455 6.20406 9.20007 6.15535 9.27221 6.12212C9.34434 6.08888 9.42167 6.07178 9.49977 6.07178C9.57787 6.07178 9.6552 6.08888 9.72734 6.12212C9.79947 6.15535 9.86499 6.20406 9.92015 6.26545L13.4826 10.2208C13.5941 10.3446 13.6568 10.5125 13.6568 10.6875C13.6568 10.8626 13.5941 11.0305 13.4826 11.1542C13.3712 11.278 13.2199 11.3476 13.0623 11.3476C12.9046 11.3476 12.7534 11.278 12.6419 11.1542L10.0935 8.32354V19.9166C10.0935 20.0915 10.031 20.2592 9.91962 20.3828C9.80827 20.5064 9.65725 20.5759 9.49977 20.5759C9.3423 20.5759 9.19128 20.5064 9.07993 20.3828C8.96858 20.2592 8.90602 20.0915 8.90602 19.9166V8.32354L6.35765 11.1542C6.24616 11.278 6.09494 11.3476 5.93727 11.3476C5.7796 11.3476 5.62839 11.278 5.5169 11.1542C5.40541 11.0305 5.34277 10.8626 5.34277 10.6875C5.34277 10.5125 5.40541 10.3446 5.5169 10.2208L9.0794 6.26545Z" fill="#ADFE37"/>
</svg>
