<svg width="107" height="32" viewBox="0 0 107 32" fill="none" xmlns="http://www.w3.org/2000/svg">
<path d="M41.7178 26.9306V23.4261H42.9645C43.2126 23.422 43.4593 23.4615 43.6933 23.5428C43.8964 23.6141 44.0802 23.7307 44.2303 23.8835C44.3797 24.0395 44.4925 24.2259 44.561 24.4296C44.6397 24.6656 44.6779 24.9129 44.6741 25.1613C44.6761 25.3952 44.6427 25.628 44.5748 25.8522C44.5115 26.0601 44.4031 26.2519 44.2571 26.4144C44.1007 26.5836 43.9052 26.713 43.6872 26.7918C43.4123 26.8884 43.1216 26.934 42.8299 26.9263H41.7178V26.9306ZM42.1685 26.56H42.8324C43.1709 26.56 43.4368 26.4996 43.6415 26.3769C43.8369 26.2608 43.9884 26.0849 44.0732 25.876C44.2291 25.4667 44.2478 25.0188 44.1267 24.5982C44.0792 24.441 43.9979 24.2957 43.8884 24.1723C43.776 24.0491 43.635 23.9546 43.4774 23.8971C43.2883 23.8293 43.088 23.7967 42.8868 23.8009H42.1676V26.5609L42.1685 26.56Z" fill="white"/>
<path d="M44.9209 26.9304L45.1385 26.3341C45.2139 26.1263 45.2864 25.9289 45.3561 25.7421L45.7964 24.5393C45.8741 24.3229 45.9455 24.1276 46.0105 23.9532C46.0756 23.7789 46.1403 23.6034 46.2048 23.4268H46.7971L46.9888 23.9575C47.0521 24.1278 47.1226 24.3226 47.2003 24.5418L47.6381 25.7472C47.7077 25.9409 47.7797 26.1396 47.8539 26.3435C47.9282 26.5474 47.999 26.7425 48.0663 26.9287H47.5984C47.527 26.7243 47.4536 26.5136 47.3782 26.2967C47.3031 26.0803 47.2314 25.8758 47.1658 25.6842L46.5182 23.828H46.4759L45.824 25.6671C45.7524 25.8665 45.679 26.076 45.6021 26.2941C45.5253 26.5122 45.4502 26.7243 45.3759 26.9287L44.9209 26.9304ZM45.578 26.0513L45.6177 25.7029H47.4145L47.4464 26.0513H45.578Z" fill="white"/>
<path d="M50.1098 26.9847C49.8398 26.9904 49.5715 26.9414 49.3215 26.8407C49.1058 26.7524 48.9131 26.6173 48.7577 26.4455C48.6071 26.2769 48.4923 26.0802 48.4201 25.8671C48.3447 25.6447 48.3068 25.4116 48.3078 25.177C48.3032 24.858 48.3754 24.5424 48.5185 24.2562C48.6547 23.9869 48.8658 23.7614 49.1272 23.6062C49.4206 23.4381 49.756 23.3546 50.0951 23.3652C50.357 23.3603 50.6173 23.4078 50.8601 23.5049C51.0731 23.5924 51.2641 23.725 51.4196 23.8933C51.5714 24.0608 51.6871 24.257 51.7598 24.47C51.8377 24.6969 51.8765 24.935 51.8746 25.1745C51.8801 25.4957 51.8085 25.8135 51.6657 26.1022C51.5306 26.3698 51.3209 26.5938 51.0613 26.7479C50.7725 26.9123 50.4431 26.9942 50.1098 26.9847ZM50.0977 26.6014C50.2998 26.6064 50.5004 26.5665 50.6848 26.4847C50.8434 26.4111 50.9826 26.3024 51.0915 26.1669C51.1996 26.0304 51.2805 25.8749 51.3298 25.7086C51.3814 25.5352 51.4073 25.3553 51.4066 25.1745C51.4071 24.9852 51.378 24.797 51.3203 24.6165C51.268 24.4503 51.1832 24.2958 51.0708 24.1616C50.9593 24.0311 50.8194 23.9272 50.6615 23.8575C50.4825 23.7817 50.289 23.7445 50.0942 23.7485C49.8943 23.7439 49.6958 23.7831 49.5132 23.8635C49.3534 23.9368 49.2126 24.0448 49.1013 24.1795C48.9905 24.3148 48.907 24.4698 48.8552 24.6361C48.7983 24.8101 48.7692 24.9917 48.7689 25.1745C48.7679 25.3578 48.7949 25.5401 48.8492 25.7154C48.8997 25.881 48.9821 26.0355 49.0918 26.1703C49.2025 26.3056 49.3435 26.4138 49.5037 26.4864C49.6905 26.5678 49.8935 26.6071 50.0977 26.6014Z" fill="white"/>
<path d="M53.5391 26.9302V23.4257H54.7936C55.022 23.4186 55.2497 23.4545 55.4645 23.5313C55.6307 23.5931 55.7707 23.7087 55.8617 23.8593C55.9555 24.0339 56.0008 24.23 55.9929 24.4275C55.9969 24.6242 55.9558 24.8193 55.8729 24.9982C55.7869 25.1698 55.6449 25.3079 55.4697 25.3901C55.2275 25.4954 54.9639 25.5441 54.6995 25.5323H53.9224V25.1643H54.6132C54.7889 25.1693 54.9642 25.1442 55.1312 25.0902C55.2564 25.0494 55.3629 24.9661 55.4317 24.8551C55.5019 24.7242 55.5353 24.5771 55.5284 24.4292C55.5335 24.3116 55.5092 24.1946 55.4576 24.0884C55.4153 24.0087 55.3505 23.9427 55.2711 23.8985C55.1933 23.8558 55.1086 23.827 55.0207 23.8133C54.9349 23.8007 54.8484 23.7942 54.7617 23.7937H53.7635L53.982 23.4896V26.9268L53.5391 26.9302Z" fill="white"/>
<path d="M56.6631 26.9303V23.4258H57.1129V26.8588L56.9402 26.5317H58.8769V26.9269L56.6631 26.9303Z" fill="white"/>
<path d="M59.1982 26.9304C59.2685 26.7425 59.341 26.5437 59.4158 26.3341C59.4907 26.1246 59.5632 25.9272 59.6334 25.7421L60.0746 24.5393C60.1523 24.3229 60.224 24.1278 60.2879 23.9532C60.3518 23.7786 60.4174 23.6039 60.4821 23.4268H61.0744L61.2661 23.9575C61.3289 24.1278 61.3994 24.3226 61.4777 24.5418L61.9163 25.7472C61.9854 25.9409 62.057 26.1396 62.1313 26.3435C62.2047 26.5471 62.2763 26.7422 62.3437 26.9287H61.8757C61.8049 26.7243 61.7315 26.5136 61.6555 26.2967L61.4431 25.6842L60.7964 23.828H60.7533L60.1014 25.6671C60.0306 25.8665 59.9563 26.076 59.8803 26.2941C59.8044 26.5122 59.7284 26.7243 59.6533 26.9287L59.1982 26.9304ZM59.8553 26.0513L59.895 25.7029H61.6918L61.7246 26.0513H59.8553Z" fill="white"/>
<path d="M63.4216 26.9303V23.4931L63.6012 23.8244H62.2051V23.4258H65.0872V23.821H63.691L63.8723 23.4897V26.9269L63.4216 26.9303Z" fill="white"/>
<path d="M65.7061 26.9303V23.4258H67.8646V23.8091H65.953L66.1447 23.4897V26.9269L65.7061 26.9303ZM66.0419 25.3638V24.9932H67.7688V25.3638H66.0419Z" fill="white"/>
<path d="M70.1469 26.9847C69.8766 26.9905 69.608 26.9415 69.3577 26.8407C69.1422 26.7522 68.9496 26.6171 68.7939 26.4455C68.6432 26.2771 68.5287 26.0803 68.4572 25.8671C68.3814 25.6448 68.3434 25.4116 68.3449 25.177C68.3403 24.858 68.4125 24.5424 68.5556 24.2562C68.6911 23.9878 68.9006 23.7625 69.16 23.6062C69.4534 23.4381 69.7888 23.3546 70.1279 23.3652C70.3901 23.3603 70.6506 23.4078 70.8937 23.5049C71.1064 23.5926 71.2971 23.7252 71.4524 23.8933C71.6044 24.0608 71.7205 24.257 71.7934 24.47C71.8706 24.697 71.9091 24.9351 71.9074 25.1745C71.9133 25.4957 71.8417 25.8137 71.6985 26.1022C71.5635 26.3698 71.3538 26.5939 71.0941 26.7479C70.8064 26.9113 70.4787 26.9932 70.1469 26.9847ZM70.1339 26.6014C70.3363 26.6063 70.5373 26.5665 70.7219 26.4847C70.8805 26.4111 71.0197 26.3024 71.1286 26.1669C71.2368 26.0306 71.3174 25.875 71.366 25.7086C71.4705 25.3516 71.4684 24.9724 71.36 24.6165C71.308 24.4503 71.2235 24.2958 71.1113 24.1616C70.9997 24.0313 70.8598 23.9274 70.7021 23.8575C70.5227 23.7817 70.329 23.7446 70.1339 23.7485C69.934 23.7441 69.7356 23.7833 69.5529 23.8635C69.3931 23.9368 69.2523 24.0448 69.141 24.1795C69.0302 24.3148 68.9467 24.4698 68.8949 24.6361C68.8395 24.8103 68.8118 24.9919 68.8129 25.1745C68.8116 25.3577 68.8384 25.5401 68.8923 25.7154C68.9428 25.881 69.0252 26.0355 69.135 26.1703C69.2459 26.3054 69.3868 26.4136 69.5468 26.4864C69.7316 26.5668 69.932 26.6061 70.1339 26.6014Z" fill="white"/>
<path d="M72.623 26.931V23.4265H73.8223C74.0515 23.4205 74.28 23.4524 74.4984 23.5211C74.6644 23.5738 74.8072 23.6807 74.9033 23.8243C75.0014 23.991 75.0487 24.1821 75.0398 24.3746C75.0419 24.5557 75.003 24.735 74.9258 24.8994C74.8454 25.0636 74.7133 25.1977 74.5493 25.2818C74.3267 25.3874 74.0812 25.4374 73.8344 25.4275L73.9769 25.2333L74.5364 25.9233C74.6245 26.0301 74.7174 26.1436 74.8153 26.264C74.9137 26.385 75.0087 26.5034 75.1019 26.6193C75.1952 26.7351 75.2746 26.8373 75.3506 26.9268H74.823C74.705 26.7797 74.5916 26.6377 74.4829 26.5009C74.3741 26.3629 74.267 26.2291 74.1608 26.0979L73.5236 25.2878L73.7999 25.5059H72.9857V25.1404H73.6609C73.8344 25.1454 74.0076 25.1212 74.1729 25.0689C74.2974 25.0296 74.404 24.9485 74.4742 24.8397C74.5466 24.7114 74.5813 24.5656 74.5744 24.4189C74.5802 24.2995 74.5555 24.1806 74.5027 24.0731C74.4613 23.994 74.3962 23.9294 74.3162 23.8882C74.238 23.8485 74.1532 23.8228 74.0658 23.8124C73.98 23.8007 73.8934 23.7947 73.8068 23.7945H72.7621L73.0634 23.4904V26.9276L72.623 26.931Z" fill="white"/>
<path d="M75.8311 26.9302C75.8541 26.7405 75.8777 26.5531 75.9019 26.368C75.926 26.1831 75.9519 25.9821 75.9778 25.764L76.1246 24.6098C76.1514 24.3959 76.1764 24.1958 76.1997 24.0135C76.223 23.8312 76.2472 23.6344 76.274 23.4316H76.7273C76.8303 23.6804 76.9299 23.9206 77.026 24.1523C77.1219 24.384 77.2177 24.614 77.3118 24.8432L77.8748 26.2061H77.9093L78.4671 24.8483C78.5612 24.6157 78.6562 24.3857 78.7503 24.1557C78.8444 23.9257 78.9428 23.6863 79.0438 23.4342H79.4971C79.5219 23.6335 79.5455 23.8258 79.5679 24.0109C79.5904 24.1966 79.6154 24.3968 79.6439 24.6132L79.7881 25.7794C79.8146 25.9923 79.8396 26.1911 79.8632 26.3757C79.8865 26.558 79.9098 26.7462 79.9323 26.9387H79.5006C79.4626 26.6278 79.4255 26.3322 79.3909 26.0528C79.3564 25.7734 79.3236 25.5119 79.2942 25.2691L79.1647 24.223H79.1319L78.6812 25.35C78.5724 25.6232 78.463 25.8972 78.3531 26.1721L78.0474 26.9387H77.7427C77.6851 26.7899 77.6186 26.6264 77.5432 26.4481C77.4678 26.2697 77.393 26.0872 77.3187 25.9003L77.0934 25.3577L76.628 24.223H76.5952L76.4657 25.2665C76.4363 25.511 76.4044 25.7725 76.3698 26.0528C76.3353 26.3331 76.2999 26.6278 76.2619 26.9387L75.8311 26.9302Z" fill="white"/>
<path d="M24.8233 25.0983L27.2961 22.7906L22.6993 18.6557H29.1749V15.2321L22.8037 15.3377L27.2124 11.0145L24.7085 8.68042L20.6029 12.7779V6.90004H17.2684V18.6557L24.8233 25.0983ZM14.1825 0L4.30242 9.7478V0.713004H0.690736V14.0556H5.07345L16.7365 2.51979L14.1825 0ZM7.98317 28.1547C8.79166 28.1549 9.58204 27.9185 10.2543 27.4754C10.9267 27.0324 11.4507 26.4026 11.7602 25.6657C12.0696 24.9288 12.1506 24.1178 11.993 23.3355C11.8353 22.5532 11.446 21.8345 10.8743 21.2705C10.3026 20.7065 9.5742 20.3224 8.78124 20.1668C7.98828 20.0112 7.16636 20.0911 6.41944 20.3965C5.67253 20.7018 5.03417 21.2188 4.5851 21.8821C4.13604 22.5454 3.89644 23.3252 3.89661 24.1229C3.8965 24.6524 4.00212 25.1767 4.20745 25.6659C4.41278 26.1552 4.71379 26.5997 5.09328 26.9741C5.47278 27.3485 5.92332 27.6455 6.41918 27.848C6.91503 28.0506 7.44648 28.1548 7.98317 28.1547ZM7.97454 16.2407C9.55417 16.2383 11.099 16.6981 12.4138 17.5621C13.7285 18.426 14.7541 19.6551 15.3607 21.0941C15.9674 22.5331 16.128 24.1172 15.8221 25.6462C15.5162 27.1752 14.7576 28.5803 13.6422 29.684C12.5269 30.7876 11.1049 31.5401 9.55606 31.8464C8.00721 32.1526 6.40111 31.9988 4.94084 31.4045C3.48058 30.8102 2.23175 29.8019 1.35229 28.5073C0.472823 27.2127 0.0022226 25.6899 7.57796e-07 24.1314C-0.00092052 22.0423 0.838213 20.0383 2.33326 18.5589C3.82831 17.0796 5.85713 16.2458 7.97454 16.2407Z" fill="#ADFE37"/>
<path d="M26.3007 2.51955C26.1194 2.51972 25.9421 2.46679 25.7913 2.36747C25.6405 2.26814 25.5229 2.12689 25.4535 1.96161C25.3841 1.79632 25.366 1.61444 25.4015 1.43899C25.4369 1.26354 25.5244 1.10242 25.6527 0.976034C25.7811 0.84965 25.9445 0.763687 26.1224 0.729033C26.3003 0.694378 26.4846 0.712592 26.652 0.781367C26.8194 0.850142 26.9624 0.966385 27.0628 1.11537C27.1632 1.26436 27.2165 1.43939 27.216 1.61829C27.215 1.85734 27.1183 2.08631 26.9468 2.25519C26.7753 2.42406 26.543 2.51911 26.3007 2.51955ZM26.3007 0.803063C26.1377 0.802895 25.9783 0.850421 25.8426 0.939635C25.7069 1.02885 25.6011 1.15574 25.5385 1.30428C25.4759 1.45282 25.4593 1.61633 25.4909 1.77415C25.5225 1.93197 25.6008 2.077 25.7159 2.19093C25.831 2.30486 25.9778 2.38256 26.1376 2.41421C26.2975 2.44586 26.4633 2.43004 26.614 2.36875C26.7648 2.30747 26.8937 2.20346 26.9846 2.06988C27.0754 1.93631 27.1241 1.77915 27.1244 1.61829C27.1247 1.40245 27.038 1.19535 26.8836 1.04249C26.7291 0.88963 26.5195 0.803514 26.3007 0.803063Z" fill="white"/>
<path d="M26.0271 1.9595H25.8942V1.44838H25.7051V1.33594H26.2154V1.44838H26.0271V1.9595Z" fill="white"/>
<path d="M26.7662 1.9595V1.53357C26.7662 1.52079 26.7662 1.50375 26.7662 1.48246V1.4322L26.647 1.9595H26.5192L26.4009 1.43816V1.48842C26.4009 1.50972 26.4009 1.52675 26.4009 1.53953V1.9595H26.2783V1.33594H26.4691L26.584 1.82405L26.6979 1.33594H26.887V1.9595H26.7662Z" fill="white"/>
<path d="M65.2267 17.1896H74.9047V13.7541H65.2267V17.1896ZM93.7255 15.4544H102.408V12.0189H93.7255V15.4544ZM80.2787 19.4811L72.817 5.25H68.6415L76.1032 19.4811H80.2787ZM60.262 19.4811H64.4401L71.9009 5.25H67.7228L60.262 19.4811ZM93.7195 8.7835H107V5.25H93.7195V8.7835ZM94.38 19.4828V5.25681H90.5283V19.47L94.38 19.4828ZM82.5063 19.4828H86.3865V5.25H82.5063V19.4828ZM55.4985 19.4828H60.7326L52.2711 11.236L48.8968 13.1101L55.4985 19.4828ZM54.9546 5.2517L45.4406 14.9331V5.25767H41.5889V19.47L46.165 19.4811L60.161 5.25L54.9546 5.2517Z" fill="white"/>
</svg>
